<svg width="24" height="24" viewBox="0 0 24 24" fill="none" xmlns="http://www.w3.org/2000/svg">
<path d="M10.9569 15.0503C10.0687 15.0503 9.20069 14.7158 8.53386 14.1063C8.51374 14.0874 8.49362 14.0685 8.4735 14.0496C7.04212 12.6823 6.95446 10.387 8.28668 8.91357L9.78416 10.2998C9.19494 10.9514 9.23805 11.9696 9.87901 12.5674L9.91494 12.6008C10.244 12.8918 10.6637 13.0299 11.1006 12.9892C11.3822 12.9645 11.6481 12.867 11.8737 12.7056C11.97 12.6372 12.0577 12.5587 12.1339 12.4743L13.6357 13.8547C13.4603 14.0496 13.262 14.227 13.0436 14.3841C12.5233 14.755 11.914 14.979 11.2802 15.0343C11.1724 15.0445 11.0646 15.0488 10.9569 15.0488V15.0503Z" fill="white"/>
<path d="M15.7899 15.3195L14.2924 13.9347C14.8845 13.2787 14.8385 12.2562 14.1903 11.6569C14.1127 11.5856 14.0265 11.5202 13.9388 11.4678C13.5724 11.2438 13.1269 11.1798 12.713 11.2889C12.4169 11.3675 12.1496 11.5304 11.9412 11.7616L10.4452 10.3755C10.9194 9.85183 11.5273 9.48092 12.2028 9.30201C13.1427 9.05473 14.1558 9.20164 14.9836 9.70783C15.1834 9.82855 15.3774 9.97401 15.557 10.1398C17.033 11.5056 17.1364 13.8286 15.7913 15.3209L15.7899 15.3195Z" fill="white"/>
<path d="M20.5841 11.9929C20.5841 15.9187 18.0002 19.2337 14.4591 20.2897V22.0584H12.4572V20.6329C12.3178 20.6402 12.1784 20.6431 12.0376 20.6431C11.753 20.6431 11.4699 20.6286 11.1925 20.6009V22.0584H9.19061V20.1515C5.86941 18.9646 3.49097 15.7602 3.49097 11.9944C3.49097 8.22857 5.86941 5.02275 9.19061 3.83584V1.89111H11.1925V3.38348C11.4699 3.35584 11.753 3.3413 12.0376 3.3413C12.1784 3.3413 12.3192 3.3442 12.4572 3.35148V1.89111H14.4591V3.6933C16.4855 4.29839 18.1985 5.64239 19.2922 7.41693L16.9525 8.7333C16.3446 7.79366 15.478 7.0402 14.4577 6.57329C13.8397 6.2882 13.1657 6.11075 12.4558 6.06129C12.3178 6.05111 12.177 6.04529 12.0361 6.04529C11.7487 6.04529 11.467 6.06566 11.1911 6.10639C10.474 6.20966 9.79851 6.44675 9.18917 6.78857C7.38414 7.80239 6.16115 9.75293 6.16115 11.9915C6.16115 14.23 7.38414 16.1791 9.18917 17.1929C9.79707 17.5347 10.474 17.7704 11.1911 17.8751C11.467 17.9158 11.7487 17.9362 12.0361 17.9362C12.177 17.9362 12.3178 17.9304 12.4558 17.9202C13.1643 17.8693 13.8397 17.6918 14.4577 17.4082C15.8201 16.7842 16.9051 15.6497 17.4728 14.2446L20.5611 11.3777C20.577 11.5798 20.5841 11.7849 20.5841 11.99V11.9929Z" fill="#F7941B"/>
</svg>
