<svg width="82" height="39" viewBox="0 0 82 39" fill="none" xmlns="http://www.w3.org/2000/svg">
<g clip-path="url(#clip0_2224_815)">
<path d="M14.5637 25.364C12.8327 25.364 11.1364 24.7192 9.83606 23.5446C9.79593 23.5098 9.75579 23.4724 9.71834 23.4349C6.92507 20.7995 6.75651 16.3768 9.35446 13.5381L12.2735 16.2083C11.1257 17.4631 11.2086 19.4243 12.4581 20.5801L12.5277 20.6443C13.1698 21.2035 13.9885 21.4711 14.8393 21.3935C15.3878 21.3453 15.9069 21.158 16.3483 20.8477C16.5356 20.7139 16.7069 20.5641 16.8567 20.4008L19.7864 23.063C19.4439 23.4376 19.056 23.7827 18.6306 24.0824C17.6165 24.7968 16.4286 25.2302 15.1925 25.3372C14.9838 25.356 14.7724 25.3667 14.5637 25.3667V25.364Z" fill="white"/>
<path d="M23.9937 25.8804L21.072 23.2129C22.2279 21.9474 22.1369 19.9782 20.874 18.8224C20.7215 18.6832 20.5556 18.5602 20.3817 18.4558C19.6674 18.025 18.7978 17.8993 17.9898 18.1107C17.4119 18.2605 16.8902 18.5762 16.4835 19.023L13.5645 16.3502C14.4902 15.3415 15.6755 14.6244 16.9918 14.282C18.8246 13.8057 20.8018 14.0893 22.4178 15.0632C22.8058 15.296 23.1857 15.5769 23.5362 15.8953C26.4151 18.5281 26.6184 23.0042 23.9937 25.8804Z" fill="white"/>
<path d="M33.3426 19.4699C33.3426 27.0363 28.3019 33.4255 21.3936 35.459V38.8676H17.49V36.1198C17.2198 36.1332 16.9469 36.1385 16.6713 36.1385C16.1148 36.1385 15.5663 36.1118 15.0232 36.0583V38.8676H11.1195V35.1914C4.63939 32.9038 0 26.7287 0 19.4699C0 12.2112 4.63939 6.03067 11.1195 3.74308V0H15.0232V2.87621C15.5663 2.8227 16.1148 2.79594 16.6713 2.79594C16.9469 2.79594 17.2198 2.80129 17.49 2.81467V0H21.3936V3.47553C25.3454 4.64206 28.6872 7.23199 30.8222 10.6513L26.2604 13.1877C25.0725 11.3764 23.3842 9.92358 21.3936 9.0246C20.1896 8.47612 18.8759 8.13365 17.49 8.03733C17.2198 8.0186 16.9469 8.0079 16.6713 8.0079C16.1121 8.0079 15.5609 8.04803 15.0232 8.12562C13.6239 8.32628 12.3075 8.78113 11.1195 9.43931C7.59854 11.3951 5.21195 15.1516 5.21195 19.4672C5.21195 23.7829 7.59586 27.5393 11.1195 29.4925C12.3075 30.1507 13.6239 30.6055 15.0232 30.8062C15.5609 30.8864 16.1121 30.9239 16.6713 30.9239C16.9469 30.9239 17.2198 30.9132 17.49 30.8945C18.8733 30.7982 20.1896 30.453 21.3936 29.9072C24.0504 28.7032 26.1695 26.5173 27.2771 23.8096L33.2998 18.2846C33.3292 18.6753 33.3426 19.0686 33.3426 19.4646V19.4699Z" fill="#F7941B"/>
<path d="M39.5332 14.0653C39.5332 10.4533 41.9251 8.34497 44.6836 8.34497C46.0883 8.34497 47.2254 9.01386 47.9612 9.76568L46.6555 11.3389C46.1043 10.8359 45.5184 10.4694 44.7318 10.4694C43.2442 10.4694 42.0562 11.7911 42.0562 13.9823C42.0562 16.1736 43.0943 17.5274 44.6997 17.5274C45.5853 17.5274 46.2889 17.0753 46.8241 16.508L48.1297 18.0465C47.2254 19.1006 46.0214 19.6518 44.6007 19.6518C41.8395 19.6518 39.5332 17.7281 39.5332 14.0653Z" fill="white"/>
<path d="M49.0994 15.3014C49.0994 12.6098 51.0231 10.9536 53.0137 10.9536C55.3708 10.9536 56.5427 12.6767 56.5427 14.9348C56.5427 15.3683 56.4919 15.8204 56.441 16.0211H51.4726C51.6893 17.2251 52.5267 17.7762 53.629 17.7762C54.2471 17.7762 54.817 17.5916 55.419 17.2251L56.2377 18.7127C55.3842 19.2986 54.2819 19.6491 53.2946 19.6491C50.9187 19.6491 49.0967 18.0438 49.0967 15.3014H49.0994ZM54.4504 14.3997C54.4504 13.4793 54.0491 12.8265 53.0618 12.8265C52.2913 12.8265 51.6224 13.3455 51.4565 14.3997H54.4504Z" fill="white"/>
<path d="M58.248 11.1543H60.2547L60.4206 12.2084H60.4875C61.1911 11.5396 62.0259 10.9536 63.147 10.9536C64.953 10.9536 65.7235 12.2245 65.7235 14.298V19.4485H63.2647V14.6138C63.2647 13.4098 62.9463 13.0405 62.2453 13.0405C61.6273 13.0405 61.242 13.3241 60.7069 13.8432V19.4458H58.248V11.1489V11.1543Z" fill="white"/>
<path d="M68.1508 16.4383V13.0751H67.0137V11.2531L68.2846 11.1514L68.5682 8.94409H70.6096V11.1514H72.6002V13.0751H70.6096V16.4035C70.6096 17.3399 71.027 17.7252 71.6798 17.7252C71.9474 17.7252 72.247 17.6423 72.4664 17.5567L72.8517 19.3466C72.4156 19.4804 71.8136 19.6463 71.0109 19.6463C68.9534 19.6463 68.1508 18.3593 68.1508 16.4356V16.4383Z" fill="white"/>
<path d="M42.1717 24.9358H39.1777V22.8623H47.6405V24.9358H44.6465V33.7678H42.1717V24.9358Z" fill="#F7941B"/>
<path d="M47.3916 29.618C47.3916 26.8595 49.3314 25.2703 51.4397 25.2703C53.548 25.2703 55.4717 26.8595 55.4717 29.618C55.4717 32.3765 53.532 33.9658 51.4397 33.9658C49.3474 33.9658 47.3916 32.3765 47.3916 29.618ZM52.9621 29.618C52.9621 28.1786 52.443 27.2609 51.4397 27.2609C50.4364 27.2609 49.9173 28.1813 49.9173 29.618C49.9173 31.0548 50.4203 31.9752 51.4397 31.9752C52.4591 31.9752 52.9621 31.0548 52.9621 29.618Z" fill="#F7941B"/>
<path d="M57.1611 22.041H59.5531V28.7646H59.62L62.2473 25.4684H64.9229L62.0119 28.8797L65.1396 33.7626H62.4801L60.6072 30.5332L59.5531 31.7211V33.7626H57.1611V22.0383V22.041Z" fill="#F7941B"/>
<path d="M65.3747 29.618C65.3747 26.9264 67.2985 25.2703 69.2891 25.2703C71.6462 25.2703 72.8181 26.9933 72.8181 29.2515C72.8181 29.6849 72.7673 30.1371 72.7164 30.3377H67.748C67.9647 31.5417 68.8021 32.0929 69.9044 32.0929C70.5225 32.0929 71.0924 31.9083 71.6944 31.5417L72.5131 33.0293C71.6596 33.6153 70.5573 33.9658 69.57 33.9658C67.1941 33.9658 65.3721 32.3604 65.3721 29.618H65.3747ZM70.7258 28.7164C70.7258 27.796 70.3245 27.1431 69.3372 27.1431C68.5667 27.1431 67.8978 27.6622 67.7319 28.7164H70.7258Z" fill="#F7941B"/>
<path d="M74.5244 25.4709H76.5311L76.697 26.5251H76.7638C77.4675 25.8562 78.3023 25.2703 79.4233 25.2703C81.2293 25.2703 81.9999 26.5411 81.9999 28.6147V33.7651H79.5411V28.9304C79.5411 27.7264 79.2227 27.3572 78.5217 27.3572C77.9036 27.3572 77.5183 27.6408 76.9832 28.1598V33.7624H74.5244V25.4656V25.4709Z" fill="#F7941B"/>
</g>
<defs>
<clipPath id="clip0_2224_815">
<rect width="82" height="38.8676" fill="white"/>
</clipPath>
</defs>
</svg>
