<svg width="345" height="164" viewBox="0 0 345 164" fill="none" xmlns="http://www.w3.org/2000/svg">
<g clip-path="url(#clip0_3136_538)">
<path d="M61.1378 106.483C53.8705 106.483 46.7492 103.776 41.2902 98.845C41.1217 98.699 40.9533 98.5418 40.796 98.3845C29.0694 87.3206 28.3618 68.7535 39.2684 56.8359L51.5229 68.0459C46.7042 73.3138 47.0524 81.5472 52.298 86.3996L52.59 86.6691C55.2858 89.0167 58.7229 90.1399 62.2948 89.8142C64.5974 89.612 66.7765 88.8258 68.6298 87.5228C69.4161 86.9612 70.135 86.3322 70.764 85.647L83.0634 96.8232C81.6257 98.3957 79.997 99.8447 78.2111 101.103C73.954 104.102 68.9668 105.921 63.7775 106.371C62.9013 106.449 62.014 106.494 61.1378 106.494V106.483Z" fill="black"/>
<path d="M100.721 108.651L88.4552 97.4522C93.3076 92.1393 92.9257 83.8723 87.624 79.0199C86.9838 78.4358 86.2873 77.9191 85.5572 77.4811C82.5582 75.6727 78.9077 75.1447 75.5155 76.0321C73.0893 76.6611 70.899 77.9865 69.1917 79.8623L56.9371 68.6412C60.8235 64.4066 65.7995 61.3963 71.3258 59.9586C79.02 57.9592 87.3207 59.1498 94.1051 63.2384C95.7338 64.2156 97.3288 65.395 98.8002 66.7317C110.886 77.7843 111.74 96.5761 100.721 108.651Z" fill="black"/>
<path d="M139.978 81.738C139.978 113.503 118.816 140.326 89.8141 148.863V163.173H73.4261V151.637C72.2916 151.693 71.1459 151.716 69.989 151.716C67.6526 151.716 65.35 151.603 63.0698 151.379V163.173H46.6818V147.739C19.4769 138.136 0 112.211 0 81.738C0 51.2646 19.4769 25.3178 46.6818 15.7141V0H63.0698V12.0748C65.35 11.8502 67.6526 11.7378 69.989 11.7378C71.1459 11.7378 72.2916 11.7603 73.4261 11.8165V0H89.8141V14.5909C106.404 19.4882 120.434 30.3611 129.397 44.7161L110.246 55.3644C105.259 47.7601 98.171 41.6609 89.8141 37.8868C84.7595 35.5842 79.2444 34.1464 73.4261 33.7421C72.2916 33.6634 71.1459 33.6185 69.989 33.6185C67.6414 33.6185 65.3275 33.787 63.0698 34.1127C57.1953 34.9552 51.6689 36.8647 46.6818 39.6278C31.9 47.8387 21.8807 63.609 21.8807 81.7268C21.8807 99.8446 31.8887 115.615 46.6818 123.815C51.6689 126.578 57.1953 128.487 63.0698 129.33C65.3275 129.667 67.6414 129.824 69.989 129.824C71.1459 129.824 72.2916 129.779 73.4261 129.7C79.2332 129.296 84.7595 127.847 89.8141 125.556C100.968 120.501 109.864 111.324 114.514 99.9569L139.798 76.7621C139.922 78.402 139.978 80.0532 139.978 81.7156V81.738Z" fill="#F7941B"/>
<path d="M165.959 59.0485C165.959 43.8848 176 35.0337 187.581 35.0337C193.478 35.0337 198.252 37.8418 201.341 40.9981L195.859 47.6027C193.545 45.491 191.086 43.9522 187.783 43.9522C181.538 43.9522 176.551 49.501 176.551 58.7003C176.551 67.8996 180.909 73.5832 187.648 73.5832C191.366 73.5832 194.32 71.6849 196.567 69.3037L202.048 75.7623C198.252 80.1879 193.197 82.5017 187.233 82.5017C175.641 82.5017 165.959 74.4256 165.959 59.0485Z" fill="black"/>
<path d="M206.126 64.238C206.126 52.9382 214.202 45.9854 222.559 45.9854C232.454 45.9854 237.374 53.219 237.374 62.6991C237.374 64.5188 237.161 66.4171 236.947 67.2595H216.089C216.999 72.3141 220.514 74.6279 225.142 74.6279C227.737 74.6279 230.129 73.8529 232.657 72.3141L236.094 78.5593C232.511 81.0192 227.883 82.4906 223.738 82.4906C213.764 82.4906 206.115 75.7512 206.115 64.238H206.126ZM228.59 60.4527C228.59 56.5887 226.906 53.848 222.761 53.848C219.526 53.848 216.718 56.0271 216.021 60.4527H228.59Z" fill="black"/>
<path d="M244.54 46.8278H252.965L253.661 51.2533H253.942C256.896 48.4452 260.401 45.9854 265.107 45.9854C272.689 45.9854 275.924 51.3207 275.924 60.0258V81.6482H265.601V61.3512C265.601 56.2967 264.264 54.7466 261.322 54.7466C258.727 54.7466 257.109 55.9372 254.863 58.1163V81.6369H244.54V46.8053V46.8278Z" fill="black"/>
<path d="M286.112 69.0117V54.8926H281.338V47.2433L286.673 46.8165L287.864 37.5498H296.434V46.8165H304.791V54.8926H296.434V68.8657C296.434 72.797 298.186 74.4145 300.927 74.4145C302.05 74.4145 303.308 74.0663 304.229 73.7068L305.847 81.2213C304.016 81.7829 301.489 82.4793 298.119 82.4793C289.481 82.4793 286.112 77.0765 286.112 69.0005V69.0117Z" fill="black"/>
<path d="M177.045 104.686H164.476V95.9805H200.004V104.686H187.435V141.764H177.045V104.686Z" fill="#F7941B"/>
<path d="M198.959 124.342C198.959 112.762 207.103 106.09 215.954 106.09C224.805 106.09 232.881 112.762 232.881 124.342C232.881 135.923 224.738 142.595 215.954 142.595C207.17 142.595 198.959 135.923 198.959 124.342ZM222.345 124.342C222.345 118.299 220.166 114.446 215.954 114.446C211.742 114.446 209.563 118.31 209.563 124.342C209.563 130.374 211.674 134.238 215.954 134.238C220.233 134.238 222.345 130.374 222.345 124.342Z" fill="#F7941B"/>
<path d="M239.969 92.5322H250.011V120.759H250.291L261.321 106.921H272.554L260.333 121.242L273.464 141.741H262.299L254.436 128.184L250.011 133.171V141.741H239.969V92.521V92.5322Z" fill="#F7941B"/>
<path d="M274.452 124.342C274.452 113.042 282.528 106.09 290.885 106.09C300.781 106.09 305.701 113.323 305.701 122.803C305.701 124.623 305.487 126.521 305.274 127.364H284.415C285.325 132.418 288.841 134.732 293.469 134.732C296.063 134.732 298.456 133.957 300.983 132.418L304.42 138.664C300.837 141.123 296.209 142.595 292.065 142.595C282.09 142.595 274.441 135.855 274.441 124.342H274.452ZM296.917 120.557C296.917 116.693 295.232 113.952 291.087 113.952C287.852 113.952 285.044 116.131 284.348 120.557H296.917Z" fill="#F7941B"/>
<path d="M312.867 106.932H321.291L321.988 111.358H322.268C325.223 108.549 328.727 106.09 333.433 106.09C341.015 106.09 344.25 111.425 344.25 120.13V141.752H333.928V121.455C333.928 116.401 332.591 114.851 329.648 114.851C327.053 114.851 325.436 116.041 323.19 118.221V141.741H312.867V106.91V106.932Z" fill="#F7941B"/>
</g>
<defs>
<clipPath id="clip0_3136_538">
<rect width="344.25" height="163.173" fill="white"/>
</clipPath>
</defs>
</svg>
